<?xml version="1.0" standalone="no"?>
<!DOCTYPE svg PUBLIC "-//W3C//DTD SVG 20010904//EN"
 "http://www.w3.org/TR/2001/REC-SVG-20010904/DTD/svg10.dtd">
<svg version="1.0" xmlns="http://www.w3.org/2000/svg"
 width="180.000000pt" height="148.000000pt" viewBox="60 0 180.000000 148.000000"
 preserveAspectRatio="xMidYMid meet">
<metadata>
Created by potrace 1.10, written by Peter Selinger 2001-2011
</metadata>
<g transform="translate(0.000000,148.000000) scale(0.100000,-0.100000)"
fill="#000000" stroke="none">
<path d="M1553 1310 c115 -17 167 -56 167 -125 0 -110 -155 -225 -523 -389 -93 -41 -186
-86 -208 -101 -43 -28 -79 -78 -80 -110 0 -17 -2 -16 -11 5 -5 14 -11 68 -11
121 -1 143 6 151 253 244 226 86 366 167 390 225 26 64 -29 110 -131 110 -29
0 -50 3 -46 6 5 5 72 17 122 23 6 0 41 -4 78 -9z m314 -134 c79 -69 89 -115
47 -205 -35 -77 -142 -178 -364 -346 -211 -159 -281 -221 -322 -284 -34 -54
-36 -102 -7 -150 l20 -34 -48 28 c-111 65 -153 116 -153 185 0 100 107 216
403 439 201 151 290 234 318 294 24 54 24 74 -2 121 l-20 38 42 -24 c23 -12
61 -40 86 -62z m-755 -16 c-5 -38 16 -63 77 -95 l45 -22 -40 -13 c-83 -27
-220 -84 -246 -102 -37 -26 -36 -10 5 65 24 47 148 197 161 197 2 0 1 -14 -2
-30z m977 -450 c1 -92 -9 -122 -49 -152 -14 -10 -107 -51 -206 -91 -204 -82
-297 -131 -355 -187 -34 -32 -40 -44 -37 -71 4 -47 43 -71 125 -79 l68 -6 -48
-8 c-77 -13 -205 -2 -259 21 -56 26 -83 68 -74 119 9 44 90 132 176 189 63 42
116 69 430 217 131 62 183 102 201 156 l13 37 7 -30 c4 -16 7 -68 8 -115z
m-62 -272 c-50 -101 -177 -242 -160 -178 8 30 -22 67 -75 94 l-47 24 30 11
c150 56 218 85 247 105 18 13 35 21 37 20 2 -2 -12 -36 -32 -76z"/>
</g>
</svg>
